<svg xmlns="http://www.w3.org/2000/svg" viewBox="0 0 24 24">
  <path fill="#087F8C" d="M12 .7a11.6 11.6 0 0 0-3.67 22.6c.58.11.79-.25.79-.56v-2.24c-3.22.7-3.9-1.36-3.9-1.36-.53-1.34-1.29-1.7-1.29-1.7-1.05-.72.08-.71.08-.71 1.17.08 1.78 1.2 1.78 1.2 1.04 1.77 2.72 1.26 3.38.97.11-.75.41-1.26.74-1.55-2.57-.29-5.27-1.28-5.27-5.73 0-1.26.45-2.3 1.2-3.11-.12-.3-.52-1.48.11-3.07 0 0 .98-.31 3.19 1.19a11.08 11.08 0 0 1 5.81 0c2.21-1.5 3.18-1.19 3.18-1.19.64 1.59.24 2.77.12 3.07.74.81 1.19 1.85 1.19 3.11 0 4.46-2.71 5.43-5.29 5.72.42.36.79 1.06.79 2.15v3.19c0 .31.21.68.8.56A11.6 11.6 0 0 0 12 .7Z"/>
</svg>
